<?xml version="1.0" encoding="UTF-8" standalone="no"?>
<svg width="40" height="40" viewBox="0 0 40 40" xmlns="http://www.w3.org/2000/svg">
  <!-- Main irregular debris shape -->
  <path d="M10,15 L5,20 L8,28 L15,32 L25,30 L32,25 L35,15 L30,8 L20,5 L12,8 Z" 
        fill="#777777" stroke="#555555" stroke-width="1"/>
  
  <!-- Surface details -->
  <path d="M12,15 L18,12 L25,15 L28,20 L25,25 L18,28 L12,25 L10,20 Z" 
        fill="#999999" stroke="#666666" stroke-width="0.5"/>
  
  <!-- Craters and damage -->
  <circle cx="15" cy="15" r="3" fill="#555555" stroke="#444444" stroke-width="0.5"/>
  <circle cx="25" cy="22" r="4" fill="#666666" stroke="#444444" stroke-width="0.5"/>
  <circle cx="18" cy="25" r="2" fill="#555555" stroke="#444444" stroke-width="0.5"/>
  
  <!-- Metallic highlights -->
  <path d="M14,12 L16,14 L14,16 L12,14 Z" fill="#AAAAAA" stroke="#888888" stroke-width="0.5"/>
  <path d="M26,18 L28,20 L26,22 L24,20 Z" fill="#AAAAAA" stroke="#888888" stroke-width="0.5"/>
  <path d="M18,24 L20,26 L18,28 L16,26 Z" fill="#AAAAAA" stroke="#888888" stroke-width="0.5"/>
</svg>
